<svg xmlns="http://www.w3.org/2000/svg" viewBox="0 0 256.57 256.57">
  <defs>
    <style>
      .cls-1 {
        fill: none;
        stroke: #f8f8f8;
        stroke-miterlimit: 10;
        stroke-width: 11px;
      }
    </style>
  </defs>
  <title>Asset 10</title>
  <g id="Layer_2" data-name="Layer 2">
    <g id="Layer_1-2" data-name="Layer 1">
      <g>
        <path class="cls-1" d="M245,40a46.38,46.38,0,0,0-11.19-17.2,46.38,46.38,0,0,0-17.2-11.19C211.36,9.49,203.41,7,188.8,6.38c-15.8-.75-20.54-.88-60.51-.88s-44.72.13-60.52.88C53.16,7.08,45.21,9.49,40,11.56a46.38,46.38,0,0,0-17.2,11.19A46.38,46.38,0,0,0,11.56,40C9.49,45.21,7,53.16,6.38,67.77c-.75,15.8-.88,20.54-.88,60.52s.18,44.71.88,60.51c.7,14.61,3.11,22.56,5.18,27.82a46.38,46.38,0,0,0,11.19,17.2A46.38,46.38,0,0,0,40,245c5.26,2.07,13.21,4.52,27.82,5.18,15.8.75,20.54.88,60.52.88s44.71-.18,60.51-.88c14.61-.7,22.56-3.11,27.82-5.18A49.54,49.54,0,0,0,245,216.62c2.07-5.26,4.52-13.21,5.18-27.82.75-15.8.88-20.54.88-60.51s-.18-44.72-.88-60.52C249.49,53.16,247.08,45.21,245,40ZM128.29,205.21a76.93,76.93,0,1,1,76.92-76.92A76.94,76.94,0,0,1,128.29,205.21Zm80-138.89a18,18,0,1,1,18-18A18,18,0,0,1,208.24,66.32Z"/>
        <circle class="cls-1" cx="128.29" cy="128.29" r="49.94"/>
      </g>
    </g>
  </g>
</svg>
