<svg xmlns="http://www.w3.org/2000/svg" viewBox="0 0 340.8 258.87">
  <defs>
    <style>
      .cls-1 {
        fill: none;
        stroke: #f8f8f8;
        stroke-miterlimit: 10;
        stroke-width: 11px;
      }
    </style>
  </defs>
  <title>Asset 12</title>
  <g id="Layer_2" data-name="Layer 2">
    <g id="Layer_1-2" data-name="Layer 1">
      <path class="cls-1" d="M294.74,68.78c.19,2.66.19,5.37.19,8,0,82-62.46,176.56-176.55,176.56a175.23,175.23,0,0,1-95-27.92,115.33,115.33,0,0,0,14.75.92,124.3,124.3,0,0,0,77-26.61,62.18,62.18,0,0,1-58-43.11,62.38,62.38,0,0,0,28-1.06A62.07,62.07,0,0,1,35.44,94.77V94a61.75,61.75,0,0,0,28.16,7.74A62.09,62.09,0,0,1,44.4,18.9,176.21,176.21,0,0,0,172.28,83.73,62.09,62.09,0,0,1,278,27.17a124.15,124.15,0,0,0,39.38-15.05,62.17,62.17,0,0,1-27.29,34.31,123.24,123.24,0,0,0,35.61-9.77A126.07,126.07,0,0,1,294.74,68.78Z"/>
    </g>
  </g>
</svg>
