<svg xmlns="http://www.w3.org/2000/svg" viewBox="0 0 359.66 256.75">
  <defs>
    <style>
      .cls-1 {
        fill: none;
        stroke: #f8f8f8;
        stroke-miterlimit: 10;
        stroke-width: 11px;
      }
    </style>
  </defs>
  <title>Asset 11</title>
  <g id="Layer_2" data-name="Layer 2">
    <g id="Layer_1-2" data-name="Layer 1">
      <g>
        <polygon class="cls-1" points="144.18 180.2 235.28 128.37 144.18 76.55 144.18 180.2"/>
        <path class="cls-1" d="M346.87,212.86a43.73,43.73,0,0,1-30.83,31c-27.14,7.36-136.21,7.36-136.21,7.36s-109,0-136.21-7.36a43.71,43.71,0,0,1-30.82-31c-7.3-27.36-7.3-84.49-7.3-84.49s0-57.13,7.35-84.49a43.73,43.73,0,0,1,30.82-31C70.82,5.5,179.88,5.5,179.88,5.5s109,0,136.22,7.35a43.73,43.73,0,0,1,30.82,31c7.24,27.36,7.24,84.49,7.24,84.49S354.16,185.5,346.87,212.86Z"/>
      </g>
    </g>
  </g>
</svg>
